<?xml version="1.0" encoding="UTF-8" standalone="no"?>

<svg
        version="1.1"
        id="svg1"
        width="334.72"
        height="481.60001"
        viewBox="0 0 334.72 481.60001"
        xmlns="http://www.w3.org/2000/svg"
>
  <defs
     id="defs1" />
  <g
     id="g1">
    <path
       style="fill:#000000"
       d="m 311.68,481.40435 c -9.65269,-0.6352 -24.71074,-3.06297 -34.61332,-5.58061 -1.34932,-0.34305 -2.70614,-0.62373 -3.01515,-0.62373 -0.30901,0 -2.01301,0.72009 -3.78668,1.6002 -3.70378,1.83785 -7.82194,2.97655 -13.44215,3.71684 -4.86015,0.64018 -14.85115,0.45728 -19.3827,-0.35483 -4.12854,-0.73989 -9.37391,-2.46705 -11.64415,-3.83412 -1.03036,-0.62045 -1.97299,-1.12809 -2.09473,-1.12809 -0.12174,0 -0.9698,0.36106 -1.88458,0.80237 -9.47989,4.57325 -28.53145,4.83263 -37.58513,0.5117 -1.992,-0.95069 -2.07704,-0.96228 -4.88933,-0.66648 -3.77223,0.39677 -16.45949,0.38584 -20.28926,-0.0175 l -3.02717,-0.31879 -2.09283,1.08471 c -10.58175,5.48453 -31.35837,5.70992 -40.65282,0.44102 -2.16995,-1.23012 -5.50638,-4.51942 -7.34153,-7.23782 -1.72885,-2.56095 -3.96877,-7.27112 -4.67909,-9.83936 l -0.54213,-1.96012 -1.638627,0.44219 C 92.004217,460.35099 76.736445,460.98314 65.92,459.81485 57.951482,458.95416 48.594931,456.42938 41.295939,453.17027 22.276458,444.67778 8.5876876,427.79833 5.8896977,409.51127 5.1392063,404.42442 5.4181116,395.82862 6.4994123,390.72 c 1.2947817,-6.11721 3.026978,-10.28658 7.4690097,-17.97782 3.336488,-5.77703 4.44345,-8.26727 5.087185,-11.44423 0.469391,-2.31655 0.492072,-3.07337 0.162668,-5.42806 -0.456128,-3.26055 -1.678175,-6.5617 -3.393774,-9.16771 C 15.135765,345.65598 12.547092,342.712 10.071895,340.16 3.1866288,333.0611 1.7805879,331.04773 0.74389751,326.80286 -0.05784882,323.52001 0.03107306,316.74793 0.91911684,313.45857 2.8656576,306.2485 7.485796,300.76036 14.520353,297.30204 c 4.386583,-2.15653 6.573839,-2.69353 11.079647,-2.72023 4.045716,-0.024 6.711802,0.59716 10.267577,2.39211 4.160179,2.10006 10.136924,7.50837 13.48944,12.2065 3.668536,5.14099 7.459943,13.1597 10.354116,21.89863 2.415899,7.29479 3.42044,12.38167 3.436284,17.40095 0.02082,6.59461 -1.222593,11.64461 -7.311066,29.69324 -5.087496,15.08135 -6.025548,18.71121 -6.054082,23.42677 -0.02081,3.43923 0.03892,3.80561 0.912956,5.6 1.303785,2.67664 4.32324,5.57776 7.290899,7.00514 2.876188,1.3834 5.601845,2.05773 9.373876,2.31911 4.758729,0.32976 8.429982,-0.82406 21.76,-6.8388 3.872,-1.74711 7.271185,-3.26056 7.553745,-3.36322 0.446201,-0.16211 0.538713,-1.2526 0.70366,-8.29444 0.255288,-10.8987 1.263979,-17.91929 3.253825,-22.64695 3.1971,-7.59597 11.17799,-17.53008 25.59644,-31.86085 l 8.69286,-8.64 -1.56727,-3.68 c -4.93037,-11.57667 -7.04414,-21.3697 -6.30478,-29.20992 1.50718,-15.98225 11.97321,-40.97213 31.59092,-75.43008 5.45132,-9.57508 12.4549,-21.26505 18.11711,-30.24 l 4.0377,-6.4 -1.6771,-1.40705 c -3.09416,-2.59593 -8.05792,-7.89961 -10.2385,-10.93966 -2.46083,-3.43074 -5.90355,-10.12014 -7.13656,-13.86672 -3.95507,-12.0178 -3.22622,-25.627 2.01513,-37.62657 l 0.62898,-1.44 -2.40798,-3.84 C 147.79107,98.17586 137.52803,74.765846 134.34121,57.760001 c -0.59524,-3.176364 -0.72097,-4.973712 -0.72756,-10.4 -0.007,-5.769203 0.079,-6.902738 0.71345,-9.403151 1.45844,-5.747972 3.88202,-9.273868 7.64937,-11.128527 1.83231,-0.902044 2.42105,-1.032234 4.69914,-1.039134 4.4358,-0.01344 8.08882,1.386491 13.87281,5.316393 9.64254,6.551579 21.13113,18.639281 35.45414,37.303034 0.0374,0.04874 1.34813,-0.665264 2.91272,-1.586673 11.09292,-6.532757 25.16385,-9.049129 36.25175,-6.483078 1.12587,0.260557 2.09394,0.426833 2.15127,0.369501 0.0573,-0.05733 0.76843,-2.400167 1.58023,-5.206302 5.0949,-17.611618 12.01701,-34.455794 17.67991,-43.022064 6.56805,-9.9354923 11.78615,-13.06629618 20.20728,-12.12414513 9.41669,1.05353503 16.06306,7.67073573 20.17676,20.08821613 4.30023,12.980506 5.8937,30.785096 5.70448,63.73877 l -0.0966,16.822839 1.53636,1.73716 c 5.78155,6.53717 10.24457,16.03891 11.78829,25.09716 0.8676,5.09092 0.69732,13.96006 -0.36249,18.88 -2.33114,10.82188 -8.01221,21.47671 -16.00958,30.02592 l -1.905,2.03645 3.87838,4.92881 c 6.81662,8.66288 12.24577,16.60847 14.75597,21.59544 4.01106,7.96872 7.37855,24.14791 9.2524,44.45338 0.65258,7.0715 0.55338,27.13662 -0.15899,32.16 -1.52917,10.78308 -6.07915,24.2488 -14.70515,43.52 -1.93009,4.312 -3.88146,8.67746 -4.33637,9.70101 -0.80742,1.81674 -0.81386,1.8856 -0.2705,2.89456 0.61529,1.14252 1.92052,2.82843 4.91427,6.34759 7.51532,8.83424 9.9999,21.66238 7.2828,37.60182 -2.44795,14.36049 -9.5363,31.65202 -18.74188,45.71952 -1.39088,2.12548 -2.52888,3.9429 -2.52888,4.03873 0,0.0958 1.332,0.27428 2.96,0.39658 8.1457,0.6119 14.0564,1.93482 18.6891,4.18297 11.0311,5.35315 16.19903,15.85518 15.72378,31.9531 -0.12427,4.20934 -0.23891,5.04377 -0.87484,6.36764 -1.50433,3.13173 -4.80758,5.21262 -9.77804,6.15973 -2.39382,0.45613 -9.09893,0.792 -12,0.6011 z m 8.8,-8.13632 c 3.07487,-0.4383 5.21692,-1.19223 5.64154,-1.98564 0.61974,-1.158 0.16295,-11.43222 -0.64388,-14.48238 -1.65782,-6.26725 -5.01325,-10.63647 -10.08585,-13.13317 -3.58059,-1.76234 -6.73791,-2.5814 -12.35181,-3.20427 -10.56323,-1.17201 -11.04283,-1.26434 -12.80822,-2.46591 -1.92351,-1.30919 -2.39178,-2.25872 -2.39178,-4.84992 v -2.32633 l 3.42086,-5.0902 c 10.49573,-15.61755 17.90047,-34.00648 19.76395,-49.08181 0.75942,-6.14356 0.23265,-13.6244 -1.28403,-18.235 -1.35891,-4.13099 -2.61813,-6.20061 -6.62111,-10.88221 l -1.68033,-1.9652 -1.07616,2.33701 c -0.59188,1.28535 -2.8394,6.081 -4.99447,10.657 -10.86267,23.06537 -16.65608,37.15943 -18.87559,45.92001 -1.13131,4.46538 -1.91999,14.88732 -1.92847,25.48366 -0.004,5.52232 0.0488,6.02648 1.0987,10.4 2.62174,10.92169 3.5424,20.26488 2.65705,26.96471 -0.0935,0.70783 0.13575,0.77241 9.6796,2.72623 13.97357,2.86068 26.35856,4.08599 32.48,3.21342 z m -66.72,-0.46302 c 8.00136,-0.46299 15.33373,-3.22265 16.37446,-6.1628 0.55523,-1.56858 0.54514,-8.88236 -0.0176,-12.7222 -0.57581,-3.92938 -1.83399,-10.21866 -2.81672,-14.08 -0.81044,-3.18437 -0.81351,-3.24849 -0.62904,-13.12 0.34735,-18.58683 1.07524,-23.05778 5.84555,-35.90535 3.66388,-9.86769 8.26365,-20.29787 18.52874,-42.01466 16.16886,-34.2068 21.98668,-48.36125 25.0718,-60.99838 1.64033,-6.71903 1.80423,-8.78593 1.78593,-22.52162 -0.0144,-10.78312 -0.12099,-13.60369 -0.72585,-19.2 -1.92407,-17.80189 -4.80401,-30.73999 -8.41054,-37.78424 -2.39674,-4.68128 -10.78631,-16.5817 -16.20568,-22.98735 l -0.92352,-1.0916 -2.05878,1.61163 c -5.85613,4.58421 -14.2494,9.34785 -21.82983,12.38964 -11.04367,4.43148 -22.08507,6.72133 -34.30896,7.11526 -15.63496,0.50386 -30.86566,-2.80991 -42.95278,-9.3453 -1.45263,-0.78542 -2.7793,-1.42804 -2.94815,-1.42804 -0.33507,0 -7.80425,11.90158 -14.15819,22.56 -20.06659,33.66074 -32.86241,60.4592 -37.04317,77.58008 -2.35766,9.65499 -2.02371,15.23733 1.55198,25.94268 3.49051,10.45035 8.76153,20.8695 24.11981,47.67724 9.19521,16.05015 14.26064,25.99009 16.1635,31.71773 3.5874,10.7982 7.21075,28.47314 7.63463,37.24228 0.15574,3.22195 0.0201,5.10184 -0.84294,11.68 -1.28831,9.81984 -1.41529,15.11759 -0.41555,17.33674 1.6753,3.71869 8.45393,5.6279 18.77377,5.28768 6.03696,-0.19902 10.21322,-0.91559 14.08983,-2.41755 2.60188,-1.00808 2.40925,-0.30389 1.7636,-6.44687 -0.19423,-1.848 -0.42922,-10.956 -0.52221,-20.24 l -0.16906,-16.88 h 4.03747 4.03746 v 3.25548 c 0,3.36748 0.43271,15.80671 1.07216,30.8218 l 0.36784,8.63728 1.65892,0.99078 c 3.22531,1.92628 8.66046,3.26292 14.78124,3.63506 2.04591,0.12439 4.29584,0.18439 4.99984,0.13334 0.704,-0.0511 2.648,-0.17199 4.32,-0.26874 z m -31.78962,-98.32669 c -0.68901,-0.42291 -5.09268,-8.00881 -18.1573,-31.27832 -19.25332,-34.29225 -18.36385,-32.39322 -16.19032,-34.56676 1.40631,-1.40631 2.99947,-1.71278 4.59618,-0.88417 1.09991,0.57081 2.50902,2.96442 18.43478,31.31449 9.48411,16.88305 17.31865,31.14547 17.41009,31.69427 0.22013,1.32125 -0.70181,3.22197 -1.85107,3.81627 -1.21501,0.62831 -3.13322,0.585 -4.24236,-0.0958 z m -83.66293,98.12714 c 7.29572,-0.7856 12.69241,-2.7814 15.33276,-5.67037 1.72589,-1.8884 3.72737,-5.55123 4.57773,-8.3775 2.08479,-6.92905 1.83158,-15.40196 -0.61877,-20.70542 -3.60593,-7.80456 -14.33168,-12.62722 -25.88709,-11.63972 -9.75716,0.83383 -14.39338,2.78545 -18.87042,7.9435 -3.60545,4.15389 -5.03809,8.49703 -5.09442,15.44406 -0.026,3.20956 0.10705,4.50587 0.67342,6.56 0.77887,2.82485 2.71757,7.1016 4.17183,9.20301 1.36056,1.96599 3.8032,4.34096 5.19484,5.05093 4.18296,2.13399 12.65333,3.03861 20.52012,2.19151 z m 38.23321,-4.55945 c 0.0451,-0.0451 -0.0816,-0.64989 -0.28152,-1.344 -0.68102,-2.36432 -0.38747,-10.26519 0.67666,-18.2118 0.54131,-4.04239 0.98342,-8.36239 0.98247,-9.6 -0.005,-6.26748 -4.01937,-26.24403 -7.2255,-35.9545 -1.68252,-5.09589 -6.89949,-15.34091 -15.01978,-29.49571 -8.45695,-14.74163 -13.60923,-23.99175 -15.55132,-27.92 -0.76136,-1.54 -1.47227,-2.8 -1.57978,-2.8 -0.50301,0 -17.85484,17.93543 -21.05196,21.76 -4.30991,5.15577 -8.07318,10.66538 -9.33133,13.66154 -2.09313,4.98458 -3.05039,13.23697 -2.78904,24.04393 0.26156,10.81597 1.21825,16.87281 3.29403,20.85454 1.30519,2.50358 1.14127,2.45054 3.21855,1.04142 5.98874,-4.06244 12.85003,-5.85913 22.67786,-5.93842 13.83381,-0.1116 25.15102,5.88067 30.09915,15.937 2.34593,4.76773 3.23447,9.75118 2.90984,16.32 -0.30251,6.12119 -1.66771,11.76772 -3.9226,16.22411 l -0.76107,1.50411 1.83734,0.1377 c 1.76653,0.1324 11.6496,-0.0515 11.818,-0.21992 z M 87.84,452.14866 c 4.492544,-0.37992 8.690954,-1.10217 10.413598,-1.79143 1.209781,-0.48406 1.2227,-0.50807 1.411378,-2.62288 0.553304,-6.20172 1.865374,-11.23986 3.707354,-14.23561 0.52122,-0.84769 0.94767,-1.6729 0.94767,-1.83378 0,-0.16089 -0.52623,-1.11516 -1.1694,-2.12059 -2.4998,-3.90782 -4.279489,-8.83541 -4.775963,-13.22366 -0.119517,-1.05639 -0.252973,-1.9207 -0.296569,-1.9207 -0.0436,0 -2.148996,0.9474 -4.678666,2.10534 -17.456496,7.99057 -22.41119,9.13161 -31.619911,7.28192 -12.004666,-2.41129 -20.154479,-11.13093 -20.174761,-21.58535 -0.0104,-5.35864 1.031112,-9.43193 7.190549,-28.12192 5.583961,-16.94378 6.384319,-20.13978 6.370793,-25.44 -0.0077,-3.02961 -0.194891,-4.63619 -0.886853,-7.61276 -2.163431,-9.30628 -7.102149,-21.15426 -11.237249,-26.95816 -1.730758,-2.42924 -6.260827,-7.05097 -8.257896,-8.42499 -5.610821,-3.86035 -10.775995,-4.22999 -16.789674,-1.20155 -4.462044,2.24705 -7.370447,5.39926 -8.9197158,9.66745 -1.4402278,3.96778 -1.3294786,9.92157 0.2418494,13.00163 0.3527427,0.69143 2.9008264,3.5961 5.6624084,6.45481 7.190092,7.44299 9.911406,11.65072 11.44503,17.69645 0.60306,2.37733 0.776028,3.89453 0.776028,6.80697 0,6.11414 -1.160337,9.65904 -5.831836,17.8166 -3.726007,6.5065 -4.589297,8.28547 -5.852149,12.05945 -1.486691,4.44291 -2.129142,8.72552 -2.120317,14.13411 0.01159,7.10189 1.247965,12.50819 4.23004,18.49669 8.039346,16.14432 24.227289,27.19779 45.087259,30.78653 6.185045,1.06407 17.60939,1.42118 25.127003,0.78543 z M 238.08,197.10788 c 32.24725,-2.89116 60.25693,-22.12997 68.25972,-46.88506 3.10243,-9.59679 3.0555,-19.1493 -0.13856,-28.20311 -1.9425,-5.50617 -5.2684,-10.97946 -9.28584,-15.28128 l -2.29353,-2.4559 0.0639,-19.901263 c 0.0606,-18.860068 -0.18163,-28.4746 -0.93668,-37.181266 -1.90276,-21.941355 -6.34821,-34.013243 -13.9418,-37.8598259 -1.69732,-0.8597896 -5.24775,-1.4730478 -6.95132,-1.2006889 -8.37142,1.3383773 -19.50137,23.7822188 -28.49481,57.4605148 -1.20183,4.500544 -1.49789,5.273071 -2.00554,5.233064 C 242.028,70.80725 240.32,70.272233 238.56,69.64414 c -4.07386,-1.453846 -7.11028,-2.086907 -11.16992,-2.328815 -9.81891,-0.585092 -22.06983,3.62065 -30.19129,10.364676 -1.32468,1.1 -2.51491,2 -2.64496,2 -0.13006,0 -1.4801,-1.72332 -3.00009,-3.8296 -8.05467,-11.161485 -20.30174,-25.230737 -27.86456,-32.0104 -5.12126,-4.590928 -8.1077,-6.779636 -11.67239,-8.554474 -2.52318,-1.256275 -3.32594,-1.506917 -4.85346,-1.515383 -2.19843,-0.01218 -3.0641,0.638538 -4.12251,3.098873 -2.84687,6.617727 -2.03449,18.258264 2.19493,31.450984 4.97622,15.522206 13.43454,32.328019 27.34014,54.322029 l 0.96229,1.52202 -1.62833,3.43798 c -3.42005,7.22093 -4.66245,12.5711 -4.66245,20.07797 0,7.55037 1.19433,12.5766 4.60031,19.36 5.83774,11.62651 17.74989,21.19634 32.63229,26.2157 5.76926,1.94579 12.10282,3.23413 19.52,3.97066 2.57798,0.256 10.66194,0.18797 14.08,-0.11848 z m -6.81514,-22.84942 c -2.95312,-1.0534 -5.23472,-3.48081 -6.02833,-6.41354 -0.71974,-2.65978 0.18838,-6.36129 2.0731,-8.45001 0.95253,-1.05562 3.40817,-2.59491 4.13969,-2.59491 0.33221,0 0.54866,-0.108 0.48101,-0.24 -1.50238,-2.93149 -1.67703,-3.54016 -1.67565,-5.84 0.001,-1.97539 0.15207,-2.68817 0.85283,-4.0288 1.63529,-3.12852 4.04155,-4.64982 7.6976,-4.86664 2.30716,-0.13683 2.63597,-0.0731 4.59175,0.88971 3.33165,1.64017 4.85504,4.1792 4.89934,8.16573 l 0.0249,2.24 1.75076,0.0612 c 3.34076,0.11674 6.52198,2.25709 7.87965,5.3015 0.91698,2.05619 0.99125,5.48977 0.15963,7.37892 -0.76651,1.74121 -2.85001,3.88064 -4.60572,4.72936 -3.00363,1.45196 -7.45968,0.83554 -9.86472,-1.36462 l -0.6793,-0.62144 -0.83844,1.43068 c -2.23735,3.81775 -6.90488,5.63302 -10.85809,4.22288 z m -30.37655,-32.31124 c -3.35858,-0.97017 -6.0361,-3.28801 -7.56506,-6.54881 -0.72562,-1.54754 -0.84325,-2.22247 -0.84325,-4.83841 0,-2.65946 0.1088,-3.26153 0.86916,-4.80973 1.3667,-2.78281 2.87474,-4.30874 5.57916,-5.64533 2.20706,-1.09079 2.63713,-1.1914 5.02271,-1.17492 3.70289,0.0256 5.86811,0.91311 8.39697,3.44198 2.66138,2.66137 3.42673,4.68464 3.27889,8.668 -0.12667,3.41297 -1.05534,5.6686 -3.23691,7.86212 -2.80133,2.81667 -7.75357,4.12779 -11.50167,3.0451 z m 58.32619,-18.12073 c -3.77223,-0.78191 -7.35437,-3.78849 -8.6588,-7.26756 -1.00181,-2.67195 -0.82641,-6.88485 0.38975,-9.36108 1.15753,-2.35687 3.12401,-4.27502 5.66534,-5.52611 1.87259,-0.92188 2.3818,-1.0294 4.82146,-1.01808 3.39842,0.0158 5.70178,0.85384 7.98249,2.9044 6.42941,5.78059 4.44382,16.52447 -3.6408,19.70014 -1.75812,0.69059 -4.72805,0.9479 -6.55944,0.56829 z"
       id="path1" />
  </g>
</svg>
