<?xml version="1.0" encoding="UTF-8" standalone="no"?>
<svg
        version="1.1"
        id="svg1"
        width="125.12"
        height="220.48"
        viewBox="0 0 125.12 220.48"
        xmlns="http://www.w3.org/2000/svg"
>
    <defs
            id="defs1" />
    <g
            id="g1">
        <path
                style="fill:#000000"
                d="m 56.574475,219.87222 c -3.475547,-0.19544 -3.843873,-0.27975 -5.109926,-1.16956 -3.018621,-2.12157 -4.656473,-5.60524 -4.329683,-9.20913 0.230609,-2.5432 1.391446,-4.23047 3.724496,-5.41353 1.510636,-0.76603 2.107946,-0.88 4.611808,-0.88 1.582024,0 3.801893,0.16116 4.933043,0.35814 3.239994,0.56422 3.142759,0.96098 2.200069,-8.9771 -0.610201,-6.43288 -0.909902,-8.4826 -1.28206,-8.76825 C 46.196604,174.20312 44.242105,172.5185 39.953903,167.39507 31.821399,157.67856 27.227111,147.15587 25.937732,135.29261 24.374305,120.9079 28.630483,103.53292 36.621089,91.679998 l 2.157268,-3.2 -0.115462,-2.086083 C 38.581751,84.927861 38.277536,83.756181 37.639365,82.451808 37.139928,81.430995 30.824917,72.577733 23.606008,62.777892 13.44476,48.983755 9.7120546,44.165089 7.0769386,41.439999 0.96861988,35.123117 -1.2780265,30.345386 0.92316041,28.353339 1.4052528,27.917051 18.878198,19.2 19.270625,19.2 c 0.382434,0 3.217531,3.965922 3.931613,5.499801 0.83359,1.790587 1.037284,4.068546 0.492043,5.502638 -0.532402,1.400323 -2.629822,3.416385 -4.576688,4.39916 l -1.880799,0.949424 0.581603,0.899719 c 5.556484,8.595682 25.668648,37.904593 26.293019,38.316104 0.466722,0.307607 1.640585,0.61565 2.608585,0.684539 2.458078,0.174934 3.350942,-0.517903 7.133172,-5.535142 5.494189,-7.288201 6.209427,-9.505733 5.881875,-18.236244 -0.292429,-7.794374 -0.285227,-7.774088 -5.793691,-16.32 C 49.380301,28.28391 49.175738,27.894761 48.638341,25.271828 47.184302,18.174936 47.484894,15.827142 50.685802,9.2799998 54.637986,1.1961964 57.092607,-0.85981726 61.202372,0.47122169 65.652779,1.9125847 73.66308,8.746763 78.571782,15.290345 c 1.992273,2.655814 2.312932,2.949383 3.02822,2.772381 2.530411,-0.626164 6.267203,-1.101907 8.658086,-1.102289 2.440584,-3.9e-4 3.101198,0.140856 6.080001,1.299966 6.409631,2.494114 8.835771,4.779434 10.067761,9.483423 0.67445,2.575197 1.81546,14.807614 1.57035,16.835336 -0.89368,7.393291 -6.1891,13.64609 -14.983622,17.692572 l -2.660298,1.22404 -0.21424,4.747697 c -0.458562,10.162046 -2.412603,16.844293 -5.46341,18.683257 -1.337024,0.80593 -4.280951,0.688258 -9.934628,-0.397099 -2.464,-0.473023 -4.802959,-0.886658 -5.197686,-0.919188 -0.394727,-0.03253 -0.814727,-0.156189 -0.933333,-0.274795 -0.118607,-0.118606 -0.418074,-0.215648 -0.665484,-0.215648 -0.375309,0 -0.432743,1.100076 -0.346666,6.64 0.118249,7.610609 -0.14709,6.72822 3.776868,12.560002 6.374662,9.47401 11.187952,18.67327 13.579799,25.954 1.639977,4.99206 1.321672,4.78117 5.99829,3.97412 5.642464,-0.97373 12.01494,-3.61753 16.26821,-6.74932 2.84423,-2.09427 6.62008,-6.01457 8.51022,-8.83576 1.73269,-2.5862 1.90289,-2.76365 3.95243,-4.12092 3.76383,-2.49252 6.46897,0.29134 4.34878,4.47533 -3.37052,6.6514 -14.1415,14.97654 -24.185293,18.69336 -3.181293,1.17727 -8.712184,2.44919 -10.65023,2.44919 -2.043578,0 -2.023813,-0.0438 -1.874297,4.14979 0.302175,8.47527 -2.006631,15.71432 -6.969364,21.85179 -1.895243,2.34387 -3.664647,3.97313 -5.848283,5.38506 -1.184817,0.7661 -1.196076,0.7935 -1.2,2.92035 l -0.004,2.147 4.616039,6.333 c 5.736311,7.86997 5.853557,8.01902 6.791408,8.63352 0.422252,0.27667 2.312316,0.77921 4.200142,1.11676 6.703806,1.19865 9.768509,3.5395 9.760588,7.45524 -0.0068,3.34749 -2.066615,8.99476 -4.700967,12.88817 -1.821947,2.69272 -2.607979,3.573 -4.437313,4.96937 -2.584926,1.97312 -7.923049,2.38338 -11.340688,0.8716 -3.577452,-1.58248 -4.891116,-3.45075 -4.886083,-6.94891 0.0042,-2.91894 0.952605,-4.89726 3.657104,-7.62851 2.202406,-2.22419 2.694227,-3.19348 2.143003,-4.22345 -0.29961,-0.55983 -5.141421,-4.58181 -5.80219,-4.81975 -0.151157,-0.0544 -0.321228,4.69757 -0.377937,10.56 -0.09714,10.04183 -0.140817,10.72316 -0.75443,11.76764 -1.202609,2.04707 -2.277565,2.40586 -7.348677,2.45275 -2.464,0.0228 -6.165486,-0.0533 -8.225526,-0.1692 z"
                id="path1" />
    </g>
</svg>