<?xml version="1.0" encoding="UTF-8" standalone="no"?>
<svg
        version="1.1"
        id="svg1"
        width="448.32001"
        height="489.92001"
        viewBox="0 0 448.32001 489.92001"
        xmlns="http://www.w3.org/2000/svg"
>
  <defs
     id="defs1" />
  <g
     id="g1">
    <path
       style="fill:#000000"
       d="m 218.56,489.72198 c -66.52797,-4.83783 -114.28501,-64.82349 -103.19092,-129.61389 1.83052,-10.69036 5.46848,-14.9282 12.79092,-14.90007 2.754,0.0106 27.30582,3.68042 29.23526,4.36989 6.19413,2.21343 8.74808,8.43047 6.64758,16.1821 -10.70137,39.49202 19.77397,79.02751 60.91716,79.02751 41.27683,0 71.50675,-39.06352 61.08854,-78.93945 -1.96569,-7.52373 -0.0668,-12.83416 5.57638,-15.59512 2.26286,-1.10712 28.57665,-5.1106 31.82349,-4.84175 8.34103,0.69066 11.36411,7.31638 12.56943,27.54858 3.88388,65.19403 -52.72672,121.46936 -117.45784,116.7622 z M 236,479.99914 c 59.78346,-6.86143 100.64974,-62.67216 88.92136,-121.43913 -0.92052,-4.61241 0.35623,-4.44381 -15.78808,-2.08477 -16.63529,2.4308 -15.39869,1.67883 -13.78122,8.38025 10.95955,45.40728 -23.60926,89.22452 -70.39206,89.22452 -46.83419,0 -81.26874,-43.96301 -70.18027,-89.6 1.57189,-6.46948 2.55622,-5.87461 -13.65593,-8.25291 -15.93004,-2.33693 -15.08439,-2.4845 -16.11868,2.81291 C 111.93896,425.96249 168.62043,487.73238 236,479.99914 Z M 205.92,343.80745 C 108.50015,339.74111 33.297583,316.03094 8.8513466,281.67484 -21.894326,238.46569 31.847937,194.59526 136.32,177.62072 c 15.98621,-2.59743 17.00555,-2.65176 19.92934,-1.06217 4.32022,2.34877 4.39847,2.81041 3.99695,23.57965 -0.71469,36.96882 0.95861,44.27352 12.29898,53.69057 22.1681,18.4084 82.68602,17.40995 102.79967,-1.69605 8.58692,-8.15674 9.2266,-10.61889 8.80548,-33.89271 -0.72977,-40.3314 -0.84936,-38.24185 2.358,-41.1983 3.05521,-2.81619 4.35518,-2.80986 22.93159,0.11166 88.30905,13.88839 143.14603,47.17886 138.59897,84.14077 -5.27348,42.86673 -82.82868,75.60676 -194.43898,82.08265 -5.51564,0.32004 -42.35798,0.6528 -47.68,0.43066 z m 47.36,-9.70751 c 90.99362,-5.18696 161.5989,-29.03265 181.06299,-61.15083 21.69859,-35.80539 -35.33471,-73.57603 -132.14141,-87.51142 -4.27038,-0.61473 -8.1449,-1.11768 -8.61005,-1.11768 h -0.84572 l 0.20056,8.24 c 1.14031,46.84889 1.10029,47.64144 -2.78931,55.24008 -9.60072,18.75578 -32.27396,28.22728 -67.43706,28.17108 -41.92196,-0.067 -65.56575,-13.46046 -70.72681,-40.06454 -1.19161,-6.14244 -1.66188,-36.39923 -0.7533,-48.46662 l 0.18672,-2.48 h -1.05786 c -1.47727,0 -14.45333,2.03392 -22.68875,3.55632 C 66.104487,199.89923 22.088651,221.99113 11.814811,246.67 -5.42912,288.09178 80.411958,328.75907 196.32,334.07951 c 4.048,0.18581 8.44,0.38663 9.76,0.44626 5.10638,0.23068 41.43213,-0.097 47.2,-0.42583 z m -39.84,-72.38083 c -23.71568,-1.91875 -41.80633,-10.898 -46.13015,-22.89658 -0.98067,-2.72136 -1.25897,-13.41855 -1.15987,-44.58252 0.0858,-26.99799 0.0608,-27.63264 -1.36667,-34.56001 C 163.32159,152.58618 160.5335,146.25017 157.01,142.01496 109.70276,85.152178 149.03249,0.06815414 222.56,0.20728291 295.66338,0.34560913 334.36074,84.312016 287.797,141.76 c -7.78657,9.60668 -11.49408,40.33847 -9.98785,82.79003 0.42946,12.10402 0.37814,12.60283 -1.72993,16.81462 -6.82314,13.63223 -34.51317,22.63004 -62.63922,20.35446 z m 21.28,-9.70056 c 16.8151,-2.19863 29.67613,-8.12751 33.35941,-15.37854 l 0.81275,-1.6 -0.37024,-10.56 c -1.6831,-48.00605 2.62181,-77.35176 13.20936,-90.04557 C 325.82333,81.570845 280.28544,0.75736207 211.68,10.118464 c -59.45769,8.112905 -86.8565,79.989073 -47.85219,125.532166 4.6566,5.43724 7.78778,12.17165 9.77138,21.01586 1.85177,8.25646 1.8403,7.98845 1.89528,44.29352 0.0564,37.2506 -0.10539,34.59932 2.30562,37.78273 7.62581,10.06884 34.14395,16.25385 56.91991,13.27581 z M 271.7644,64.985649 c -1.58501,-0.737105 -1.98478,-1.492563 -3.74612,-7.07923 -5.00969,-15.889846 -15.0968,-26.158148 -26.98064,-27.465268 -8.1335,-0.894616 -7.44267,-9.687655 0.72236,-9.194399 15.70794,0.948929 29.6433,14.972475 35.85402,36.080892 1.77366,6.02816 -1.14317,9.846721 -5.84962,7.658005 z"
       id="path1" />
  </g>
</svg>
